<mxfile host="app.diagrams.net" modified="2024-04-30T16:35:33.353Z" agent="Mozilla/5.0 (Windows NT 10.0; Win64; x64) AppleWebKit/537.36 (KHTML, like Gecko) Chrome/124.0.0.0 Safari/537.36" etag="wbXEygHEdkd5r1xjfpPM" version="24.3.0" type="github">
  <diagram name="Page-1" id="gZJgNO5eI7kU5ygP73Ms">
    <mxGraphModel dx="1050" dy="565" grid="1" gridSize="10" guides="1" tooltips="1" connect="1" arrows="1" fold="1" page="1" pageScale="1" pageWidth="850" pageHeight="1100" math="0" shadow="0">
      <root>
        <mxCell id="0" />
        <mxCell id="1" parent="0" />
        <mxCell id="U6Im6Bpd1VCLCNfUhpz8-1" value="&lt;p data-pm-slice=&quot;1 1 [&amp;quot;tiptapChildEditor&amp;quot;,{&amp;quot;id&amp;quot;:&amp;quot;ca8953a7-e49c-45e7-b4fe-224ca8ae2ff6&amp;quot;,&amp;quot;entityid&amp;quot;:&amp;quot;&amp;quot;,&amp;quot;shapeId&amp;quot;:&amp;quot;Zpsd7Al8EGf&amp;quot;,&amp;quot;textId&amp;quot;:&amp;quot;identifier&amp;quot;}]&quot; dir=&quot;ltr&quot;&gt;&lt;span style=&quot;color: #4b4b4b; font-size: 10pt; font-family: noto_regular&quot;&gt;class &lt;b&gt;CoverageCollector&lt;/b&gt;&lt;/span&gt;&lt;/p&gt;" style="rounded=0;whiteSpace=wrap;html=1;fillColor=#FFFFFF;" vertex="1" parent="1">
          <mxGeometry x="40" y="60" width="140" height="40" as="geometry" />
        </mxCell>
        <mxCell id="U6Im6Bpd1VCLCNfUhpz8-3" value="&lt;p data-pm-slice=&quot;1 1 [&amp;quot;tiptapChildEditor&amp;quot;,{&amp;quot;id&amp;quot;:&amp;quot;f929a453-0117-450c-815a-69be57b2cd81&amp;quot;,&amp;quot;entityid&amp;quot;:&amp;quot;&amp;quot;,&amp;quot;shapeId&amp;quot;:&amp;quot;bD75pAhFTvJ&amp;quot;,&amp;quot;textId&amp;quot;:&amp;quot;identifier&amp;quot;}]&quot; dir=&quot;ltr&quot;&gt;&lt;span style=&quot;color: #4b4b4b; font-size: 10pt; font-family: noto_regular&quot;&gt;class &lt;b&gt;CustomLogger&lt;/b&gt;&lt;/span&gt;&lt;/p&gt;" style="rounded=0;whiteSpace=wrap;html=1;fillColor=#FFFFFF;" vertex="1" parent="1">
          <mxGeometry x="40" y="120" width="140" height="40" as="geometry" />
        </mxCell>
        <mxCell id="U6Im6Bpd1VCLCNfUhpz8-4" value="&lt;p data-pm-slice=&quot;1 1 [&amp;quot;tiptapChildEditor&amp;quot;,{&amp;quot;id&amp;quot;:&amp;quot;724989ca-47d6-4394-8c9d-ed733fb02b3a&amp;quot;,&amp;quot;entityid&amp;quot;:&amp;quot;&amp;quot;,&amp;quot;shapeId&amp;quot;:&amp;quot;Wyi7f67MJx1&amp;quot;,&amp;quot;textId&amp;quot;:&amp;quot;identifier&amp;quot;}]&quot; dir=&quot;ltr&quot;&gt;&lt;span style=&quot;color: #4b4b4b; font-size: 10pt; font-family: noto_regular&quot;&gt;class &lt;b&gt;BaseListener &lt;/b&gt;implements IInvokedMethodListener, ISuiteListener, ITestListener&lt;/span&gt;&lt;/p&gt;" style="rounded=0;whiteSpace=wrap;html=1;fillColor=#FFFFFF;" vertex="1" parent="1">
          <mxGeometry x="40" y="180" width="150" height="80" as="geometry" />
        </mxCell>
        <mxCell id="U6Im6Bpd1VCLCNfUhpz8-6" value="&lt;p data-pm-slice=&quot;1 1 [&amp;quot;tiptapChildEditor&amp;quot;,{&amp;quot;id&amp;quot;:&amp;quot;830152bd-d596-407c-a962-4a3dc13da7e0&amp;quot;,&amp;quot;entityid&amp;quot;:&amp;quot;&amp;quot;,&amp;quot;shapeId&amp;quot;:&amp;quot;9Uf9OVTHU6h&amp;quot;,&amp;quot;textId&amp;quot;:&amp;quot;identifier&amp;quot;}]&quot; dir=&quot;ltr&quot;&gt;class &lt;b&gt;FailedTestsSuiteListener &lt;/b&gt;implements ISuiteListener, IExecutionListener&lt;/p&gt;" style="rounded=0;whiteSpace=wrap;html=1;fillColor=#FFFFFF;" vertex="1" parent="1">
          <mxGeometry x="40" y="290" width="170" height="80" as="geometry" />
        </mxCell>
        <mxCell id="U6Im6Bpd1VCLCNfUhpz8-7" value="&lt;p data-pm-slice=&quot;1 1 [&amp;quot;tiptapChildEditor&amp;quot;,{&amp;quot;id&amp;quot;:&amp;quot;830152bd-d596-407c-a962-4a3dc13da7e0&amp;quot;,&amp;quot;entityid&amp;quot;:&amp;quot;&amp;quot;,&amp;quot;shapeId&amp;quot;:&amp;quot;9Uf9OVTHU6h&amp;quot;,&amp;quot;textId&amp;quot;:&amp;quot;identifier&amp;quot;}]&quot; dir=&quot;ltr&quot;&gt;class &lt;b&gt;ScreenShot&lt;/b&gt;&lt;/p&gt;" style="rounded=0;whiteSpace=wrap;html=1;fillColor=#FFFFFF;" vertex="1" parent="1">
          <mxGeometry x="40" y="400" width="160" height="40" as="geometry" />
        </mxCell>
        <mxCell id="U6Im6Bpd1VCLCNfUhpz8-8" value="class &lt;b&gt;TestNgReportAppender &lt;/b&gt;extends AbstractAppender" style="rounded=0;whiteSpace=wrap;html=1;" vertex="1" parent="1">
          <mxGeometry x="40" y="470" width="160" height="50" as="geometry" />
        </mxCell>
        <mxCell id="U6Im6Bpd1VCLCNfUhpz8-9" value="class &lt;b&gt;CustomReportPortalListener &lt;/b&gt;extends ReportPortalTestNGListener implements IClassListener" style="rounded=0;whiteSpace=wrap;html=1;" vertex="1" parent="1">
          <mxGeometry x="40" y="550" width="170" height="80" as="geometry" />
        </mxCell>
        <mxCell id="U6Im6Bpd1VCLCNfUhpz8-11" value="" style="edgeStyle=orthogonalEdgeStyle;rounded=0;orthogonalLoop=1;jettySize=auto;html=1;" edge="1" parent="1" source="U6Im6Bpd1VCLCNfUhpz8-10" target="U6Im6Bpd1VCLCNfUhpz8-9">
          <mxGeometry relative="1" as="geometry" />
        </mxCell>
        <mxCell id="U6Im6Bpd1VCLCNfUhpz8-10" value="class &lt;b&gt;ReportPortalWFCListener&lt;/b&gt;&lt;div&gt;add this listener in pom.xml&lt;/div&gt;" style="rounded=0;whiteSpace=wrap;html=1;" vertex="1" parent="1">
          <mxGeometry x="40" y="660" width="170" height="60" as="geometry" />
        </mxCell>
        <mxCell id="U6Im6Bpd1VCLCNfUhpz8-12" value="&lt;p data-pm-slice=&quot;1 1 [&amp;quot;tiptapChildEditor&amp;quot;,{&amp;quot;id&amp;quot;:&amp;quot;5719cfd4-4122-469a-8a62-722d085ba0aa&amp;quot;,&amp;quot;entityid&amp;quot;:&amp;quot;&amp;quot;,&amp;quot;shapeId&amp;quot;:&amp;quot;oUzE6DaAduD&amp;quot;,&amp;quot;textId&amp;quot;:&amp;quot;identifier&amp;quot;}]&quot; dir=&quot;ltr&quot;&gt;&lt;span style=&quot;color: #4b4b4b; font-size: 10pt; font-family: noto_regular&quot;&gt;abstract class &lt;/span&gt;&lt;span style=&quot;color: rgb(70, 116, 193); font-size: 10pt; font-family: noto_regular&quot;&gt;&lt;strong&gt;AbstractTest &lt;/strong&gt;&lt;/span&gt;&lt;span style=&quot;color: #4b4b4b; font-size: 10pt; font-family: noto_regular&quot;&gt;extends org.testng.Assert&lt;/span&gt;&lt;/p&gt;" style="rounded=0;whiteSpace=wrap;html=1;" vertex="1" parent="1">
          <mxGeometry x="280" y="760" width="120" height="60" as="geometry" />
        </mxCell>
        <mxCell id="U6Im6Bpd1VCLCNfUhpz8-14" value="" style="edgeStyle=orthogonalEdgeStyle;rounded=0;orthogonalLoop=1;jettySize=auto;html=1;" edge="1" parent="1" source="U6Im6Bpd1VCLCNfUhpz8-13" target="U6Im6Bpd1VCLCNfUhpz8-12">
          <mxGeometry relative="1" as="geometry" />
        </mxCell>
        <mxCell id="U6Im6Bpd1VCLCNfUhpz8-13" value="&lt;p data-pm-slice=&quot;1 1 [&amp;quot;tiptapChildEditor&amp;quot;,{&amp;quot;id&amp;quot;:&amp;quot;45874278-9673-4f66-ab3d-6d95a977c176&amp;quot;,&amp;quot;entityid&amp;quot;:&amp;quot;&amp;quot;,&amp;quot;shapeId&amp;quot;:&amp;quot;hXwQnhvF5sQ&amp;quot;,&amp;quot;textId&amp;quot;:&amp;quot;identifier&amp;quot;}]&quot; dir=&quot;ltr&quot;&gt;&lt;span style=&quot;color: #4b4b4b; font-size: 10pt; font-family: noto_regular&quot;&gt;abstract class &lt;/span&gt;&lt;span style=&quot;color: rgb(70, 116, 193); font-size: 10pt; font-family: noto_regular&quot;&gt;&lt;strong&gt;BaseTest&lt;/strong&gt;&lt;/span&gt;&lt;/p&gt;" style="rounded=0;whiteSpace=wrap;html=1;" vertex="1" parent="1">
          <mxGeometry x="280" y="860" width="120" height="60" as="geometry" />
        </mxCell>
        <mxCell id="U6Im6Bpd1VCLCNfUhpz8-17" value="" style="edgeStyle=orthogonalEdgeStyle;rounded=0;orthogonalLoop=1;jettySize=auto;html=1;" edge="1" parent="1" source="U6Im6Bpd1VCLCNfUhpz8-15" target="U6Im6Bpd1VCLCNfUhpz8-13">
          <mxGeometry relative="1" as="geometry" />
        </mxCell>
        <mxCell id="U6Im6Bpd1VCLCNfUhpz8-15" value="&lt;p data-pm-slice=&quot;1 1 [&amp;quot;tiptapChildEditor&amp;quot;,{&amp;quot;id&amp;quot;:&amp;quot;19ecf249-bb9b-4015-ace4-025a7b237459&amp;quot;,&amp;quot;entityid&amp;quot;:&amp;quot;&amp;quot;,&amp;quot;shapeId&amp;quot;:&amp;quot;llXH3EHD34j&amp;quot;,&amp;quot;textId&amp;quot;:&amp;quot;identifier&amp;quot;}]&quot; dir=&quot;ltr&quot;&gt;&lt;span style=&quot;color: #4b4b4b; font-size: 10pt; font-family: noto_regular&quot;&gt;abstract class &lt;/span&gt;&lt;span style=&quot;color: rgb(70, 116, 193); font-size: 10pt; font-family: noto_regular&quot;&gt;&lt;strong&gt;WFCBaseTest&lt;/strong&gt;&lt;/span&gt;&lt;/p&gt;" style="rounded=0;whiteSpace=wrap;html=1;" vertex="1" parent="1">
          <mxGeometry x="280" y="960" width="120" height="60" as="geometry" />
        </mxCell>
        <mxCell id="U6Im6Bpd1VCLCNfUhpz8-18" value="" style="edgeStyle=orthogonalEdgeStyle;rounded=0;orthogonalLoop=1;jettySize=auto;html=1;" edge="1" parent="1" source="U6Im6Bpd1VCLCNfUhpz8-16" target="U6Im6Bpd1VCLCNfUhpz8-15">
          <mxGeometry relative="1" as="geometry" />
        </mxCell>
        <mxCell id="U6Im6Bpd1VCLCNfUhpz8-16" value="&lt;p data-pm-slice=&quot;1 1 [&amp;quot;tiptapChildEditor&amp;quot;,{&amp;quot;id&amp;quot;:&amp;quot;e509b041-a81a-4819-9d49-f5a8ab3c00af&amp;quot;,&amp;quot;entityid&amp;quot;:&amp;quot;&amp;quot;,&amp;quot;shapeId&amp;quot;:&amp;quot;eoPqOg1G8hX&amp;quot;,&amp;quot;textId&amp;quot;:&amp;quot;identifier&amp;quot;}]&quot; dir=&quot;ltr&quot;&gt;&lt;span style=&quot;color: #4b4b4b; font-size: 10pt; font-family: noto_regular&quot;&gt;class &lt;/span&gt;&lt;span style=&quot;color: rgb(70, 116, 193); font-size: 10pt; font-family: noto_regular&quot;&gt;&lt;strong&gt;AccrualsAcceptanceTest&lt;/strong&gt;&lt;/span&gt;&lt;/p&gt;" style="rounded=0;whiteSpace=wrap;html=1;" vertex="1" parent="1">
          <mxGeometry x="265" y="1060" width="150" height="70" as="geometry" />
        </mxCell>
        <mxCell id="U6Im6Bpd1VCLCNfUhpz8-22" value="" style="edgeStyle=orthogonalEdgeStyle;rounded=0;orthogonalLoop=1;jettySize=auto;html=1;entryX=0;entryY=0.5;entryDx=0;entryDy=0;dashed=1;" edge="1" parent="1" source="U6Im6Bpd1VCLCNfUhpz8-19" target="U6Im6Bpd1VCLCNfUhpz8-20">
          <mxGeometry relative="1" as="geometry" />
        </mxCell>
        <mxCell id="U6Im6Bpd1VCLCNfUhpz8-19" value="&lt;p data-pm-slice=&quot;1 1 [&amp;quot;tiptapChildEditor&amp;quot;,{&amp;quot;id&amp;quot;:&amp;quot;a192d85d-2479-41ac-b587-bcb2d24ac9f0&amp;quot;,&amp;quot;entityid&amp;quot;:&amp;quot;&amp;quot;,&amp;quot;shapeId&amp;quot;:&amp;quot;Z1Sbzzrmdqy&amp;quot;,&amp;quot;textId&amp;quot;:&amp;quot;identifier&amp;quot;}]&quot; dir=&quot;ltr&quot;&gt;&lt;span style=&quot;color: #4b4b4b; font-size: 10pt; font-family: noto_regular&quot;&gt;class ConfigurationReader&lt;/span&gt;&lt;/p&gt;" style="rounded=0;whiteSpace=wrap;html=1;" vertex="1" parent="1">
          <mxGeometry x="440" y="470" width="120" height="60" as="geometry" />
        </mxCell>
        <mxCell id="U6Im6Bpd1VCLCNfUhpz8-20" value="&lt;p dir=&quot;ltr&quot;&gt;&lt;span style=&quot;color: #4b4b4b; font-size: 10pt; font-family: noto_regular&quot;&gt;@ConfigurationResource(&quot;&lt;/span&gt;&lt;a href=&quot;http://test.properties&quot; rel=&quot;noopener noreferrer nofollow&quot; target=&quot;_blank&quot;&gt;&lt;span style=&quot;color: #4b4b4b; font-size: 10pt; font-family: noto_regular&quot;&gt;test.properties&lt;/span&gt;&lt;/a&gt;&lt;span style=&quot;color: #4b4b4b; font-size: 10pt; font-family: noto_regular&quot;&gt;&quot;)&lt;/span&gt;&lt;/p&gt;&lt;p dir=&quot;ltr&quot;&gt;&lt;span style=&quot;color: #4b4b4b; font-size: 10pt; font-family: noto_regular&quot;&gt;public class FrameworkConfig&lt;/span&gt;&lt;/p&gt;" style="rounded=0;whiteSpace=wrap;html=1;" vertex="1" parent="1">
          <mxGeometry x="600" y="420" width="240" height="60" as="geometry" />
        </mxCell>
        <mxCell id="U6Im6Bpd1VCLCNfUhpz8-23" value="" style="edgeStyle=orthogonalEdgeStyle;rounded=0;orthogonalLoop=1;jettySize=auto;html=1;dashed=1;" edge="1" parent="1" source="U6Im6Bpd1VCLCNfUhpz8-19" target="U6Im6Bpd1VCLCNfUhpz8-21">
          <mxGeometry relative="1" as="geometry" />
        </mxCell>
        <mxCell id="U6Im6Bpd1VCLCNfUhpz8-21" value="&lt;p dir=&quot;ltr&quot; style=&quot;text-align: center&quot;&gt;&lt;span style=&quot;color: #4b4b4b; font-size: 10pt; font-family: noto_regular&quot;&gt;@ConfigurationResource(&quot;&lt;/span&gt;&lt;a href=&quot;http://driver.properties&quot; rel=&quot;noopener noreferrer nofollow&quot; target=&quot;_blank&quot;&gt;&lt;span style=&quot;color: #4b4b4b; font-size: 10pt; font-family: noto_regular&quot;&gt;driver.properties&lt;/span&gt;&lt;/a&gt;&lt;span style=&quot;color: #4b4b4b; font-size: 10pt; font-family: noto_regular&quot;&gt;&quot;)&lt;/span&gt;&lt;/p&gt;&lt;p dir=&quot;ltr&quot;&gt;&lt;/p&gt;&lt;p dir=&quot;ltr&quot;&gt;&lt;span style=&quot;color: #4b4b4b; font-size: 10pt; font-family: noto_regular&quot;&gt;public class DriverConfig&lt;/span&gt;&lt;/p&gt;" style="rounded=0;whiteSpace=wrap;html=1;" vertex="1" parent="1">
          <mxGeometry x="600" y="520" width="250" height="60" as="geometry" />
        </mxCell>
      </root>
    </mxGraphModel>
  </diagram>
</mxfile>
